<svg xmlns="http://www.w3.org/2000/svg" width="512" height="512" viewBox="0 0 512 512" role="img" aria-labelledby="title desc">
  <title id="title">Ghostlight Emblem</title>
  <desc id="desc">Ghostlight cinematic SVG icon with luminous silver linework and teal violet glow.</desc>
  <defs>
    <linearGradient id="ghostStroke" x1="80" y1="72" x2="432" y2="440" gradientUnits="userSpaceOnUse">
      <stop offset="0" stop-color="#FFFFFF"/>
      <stop offset="0.38" stop-color="#DFF9FF"/>
      <stop offset="0.68" stop-color="#79F7FF"/>
      <stop offset="1" stop-color="#B986FF"/>
    </linearGradient>
    <linearGradient id="softFill" x1="112" y1="120" x2="400" y2="408" gradientUnits="userSpaceOnUse">
      <stop offset="0" stop-color="#79F7FF" stop-opacity="0.26"/>
      <stop offset="1" stop-color="#B986FF" stop-opacity="0.16"/>
    </linearGradient>
    <radialGradient id="halo" cx="50%" cy="50%" r="55%">
      <stop offset="0" stop-color="#79F7FF" stop-opacity="0.35"/>
      <stop offset="0.55" stop-color="#B986FF" stop-opacity="0.12"/>
      <stop offset="1" stop-color="#050815" stop-opacity="0"/>
    </radialGradient>
    <radialGradient id="bg" cx="50%" cy="45%" r="70%">
      <stop offset="0" stop-color="#162034"/>
      <stop offset="0.52" stop-color="#090D18"/>
      <stop offset="1" stop-color="#02040B"/>
    </radialGradient>
    <filter id="glow" x="-80%" y="-80%" width="260%" height="260%">
      <feGaussianBlur stdDeviation="3.2" result="blur"/>
      <feColorMatrix in="blur" type="matrix" values="0.55 0 0 0 0.22  0 0.75 0 0 0.64  0 0 1 0 1  0 0 0 0.85 0" result="glowColor"/>
      <feMerge>
        <feMergeNode in="glowColor"/>
        <feMergeNode in="SourceGraphic"/>
      </feMerge>
    </filter>
    <filter id="sparkGlow" x="-120%" y="-120%" width="340%" height="340%">
      <feGaussianBlur stdDeviation="4.5" result="blur"/>
      <feMerge>
        <feMergeNode in="blur"/>
        <feMergeNode in="SourceGraphic"/>
      </feMerge>
    </filter>
    <style>
      .line { fill: none; stroke: url(#ghostStroke); stroke-width: 18; stroke-linecap: round; stroke-linejoin: round; filter: url(#glow); }
      .thin { fill: none; stroke: url(#ghostStroke); stroke-width: 12; stroke-linecap: round; stroke-linejoin: round; filter: url(#glow); }
      .micro { fill: none; stroke: url(#ghostStroke); stroke-width: 8; stroke-linecap: round; stroke-linejoin: round; filter: url(#glow); }
      .fill { fill: url(#softFill); stroke: url(#ghostStroke); stroke-width: 14; stroke-linecap: round; stroke-linejoin: round; filter: url(#glow); }
      .soft { fill: url(#softFill); opacity: 0.72; }
      .spark { fill: #F4EEFF; filter: url(#sparkGlow); }
    </style>
  </defs>
  
  
  <circle cx="256" cy="392" r="34" fill="#8DEBFF" opacity="0.18" filter="url(#sparkGlow)"/>
  <path class="line" d="M168 220 L168 394 L344 394 L344 220"/>
  <path class="line" d="M150 220 L256 132 L362 220"/>
  <path class="thin" d="M194 220 L194 372 M318 220 L318 372"/>
  <path class="thin" d="M214 198 L256 164 L298 198"/>
  <path class="line" d="M216 132 C216 96 296 96 296 132"/>
  <path class="fill" d="M256 340 C218 302 238 266 256 238 C282 274 326 306 256 390 C214 348 204 312 234 278"/>
  <path class="micro" d="M256 238 C254 282 276 300 256 340"/>
  
  <path class="spark" d="M372 152.5 L376.5 161.5 L385.5 166 L376.5 170.5 L372 179.5 L367.5 170.5 L358.5 166 L367.5 161.5 Z"/>

  
  <path class="spark" d="M136 328.1 L139.3 334.7 L145.9 338 L139.3 341.3 L136 347.9 L132.7 341.3 L126.1 338 L132.7 334.7 Z"/>


</svg>
