<svg xmlns="http://www.w3.org/2000/svg" width="512" height="512" viewBox="0 0 512 512" role="img" aria-labelledby="title desc">
  <title id="title">Notifications</title>
  <desc id="desc">Ghostlight cinematic SVG icon with luminous silver linework and teal violet glow.</desc>
  <defs>
    <linearGradient id="ghostStroke" x1="80" y1="72" x2="432" y2="440" gradientUnits="userSpaceOnUse">
      <stop offset="0" stop-color="#FFFFFF"/>
      <stop offset="0.38" stop-color="#DFF9FF"/>
      <stop offset="0.68" stop-color="#FFFFFF"/>
      <stop offset="1" stop-color="#B986FF"/>
    </linearGradient>
    <linearGradient id="softFill" x1="112" y1="120" x2="400" y2="408" gradientUnits="userSpaceOnUse">
      <stop offset="0" stop-color="#FFFFFF" stop-opacity="0.26"/>
      <stop offset="1" stop-color="#B986FF" stop-opacity="0.16"/>
    </linearGradient>
    <radialGradient id="halo" cx="50%" cy="50%" r="55%">
      <stop offset="0" stop-color="#FFFFFF" stop-opacity="0.35"/>
      <stop offset="0.55" stop-color="#B986FF" stop-opacity="0.12"/>
      <stop offset="1" stop-color="#050815" stop-opacity="0"/>
    </radialGradient>
    <radialGradient id="bg" cx="50%" cy="45%" r="70%">
      <stop offset="0" stop-color="#162034"/>
      <stop offset="0.52" stop-color="#090D18"/>
      <stop offset="1" stop-color="#02040B"/>
    </radialGradient>
    <filter id="glow" x="-80%" y="-80%" width="260%" height="260%">
      <feGaussianBlur stdDeviation="3.2" result="blur"/>
      <feColorMatrix in="blur" type="matrix" values="0.55 0 0 0 0.22  0 0.75 0 0 0.64  0 0 1 0 1  0 0 0 0.85 0" result="glowColor"/>
      <feMerge>
        <feMergeNode in="glowColor"/>
        <feMergeNode in="SourceGraphic"/>
      </feMerge>
    </filter>
    <filter id="sparkGlow" x="-120%" y="-120%" width="340%" height="340%">
      <feGaussianBlur stdDeviation="4.5" result="blur"/>
      <feMerge>
        <feMergeNode in="blur"/>
        <feMergeNode in="SourceGraphic"/>
      </feMerge>
    </filter>
    <style>
      .line { fill: none; stroke: url(#ghostStroke); stroke-width: 18; stroke-linecap: round; stroke-linejoin: round; filter: url(#glow); }
      .thin { fill: none; stroke: url(#ghostStroke); stroke-width: 12; stroke-linecap: round; stroke-linejoin: round; filter: url(#glow); }
      .micro { fill: none; stroke: url(#ghostStroke); stroke-width: 8; stroke-linecap: round; stroke-linejoin: round; filter: url(#glow); }
      .fill { fill: url(#softFill); stroke: url(#ghostStroke); stroke-width: 14; stroke-linecap: round; stroke-linejoin: round; filter: url(#glow); }
      .soft { fill: url(#softFill); opacity: 0.72; }
      .spark { fill: #F4EEFF; filter: url(#sparkGlow); }
    </style>
  </defs>
  
  
  <path class="line" d="M170 328 L342 328 C322 300 320 268 320 222 C320 184 294 154 256 154 C218 154 192 184 192 222 C192 268 190 300 170 328 Z"/>
  <path class="thin" d="M224 356 C232 376 244 386 256 386 C268 386 280 376 288 356"/>
  <path class="thin" d="M238 154 C238 134 274 134 274 154"/>
  <circle class="spark" cx="338" cy="150" r="18"/>

</svg>
