<svg xmlns="http://www.w3.org/2000/svg" width="512" height="512" viewBox="0 0 512 512" role="img" aria-labelledby="title desc">
  <title id="title">Magic Wand</title>
  <desc id="desc">Ghostlight cinematic SVG icon with luminous silver linework and teal violet glow.</desc>
  <defs>
    <linearGradient id="ghostStroke" x1="80" y1="72" x2="432" y2="440" gradientUnits="userSpaceOnUse">
      <stop offset="0" stop-color="#FFFFFF"/>
      <stop offset="0.38" stop-color="#DFF9FF"/>
      <stop offset="0.68" stop-color="#FFFFFF"/>
      <stop offset="1" stop-color="#C184FF"/>
    </linearGradient>
    <linearGradient id="softFill" x1="112" y1="120" x2="400" y2="408" gradientUnits="userSpaceOnUse">
      <stop offset="0" stop-color="#FFFFFF" stop-opacity="0.26"/>
      <stop offset="1" stop-color="#C184FF" stop-opacity="0.16"/>
    </linearGradient>
    <radialGradient id="halo" cx="50%" cy="50%" r="55%">
      <stop offset="0" stop-color="#FFFFFF" stop-opacity="0.35"/>
      <stop offset="0.55" stop-color="#C184FF" stop-opacity="0.12"/>
      <stop offset="1" stop-color="#050815" stop-opacity="0"/>
    </radialGradient>
    <radialGradient id="bg" cx="50%" cy="45%" r="70%">
      <stop offset="0" stop-color="#162034"/>
      <stop offset="0.52" stop-color="#090D18"/>
      <stop offset="1" stop-color="#02040B"/>
    </radialGradient>
    <filter id="glow" x="-80%" y="-80%" width="260%" height="260%">
      <feGaussianBlur stdDeviation="3.2" result="blur"/>
      <feColorMatrix in="blur" type="matrix" values="0.55 0 0 0 0.22  0 0.75 0 0 0.64  0 0 1 0 1  0 0 0 0.85 0" result="glowColor"/>
      <feMerge>
        <feMergeNode in="glowColor"/>
        <feMergeNode in="SourceGraphic"/>
      </feMerge>
    </filter>
    <filter id="sparkGlow" x="-120%" y="-120%" width="340%" height="340%">
      <feGaussianBlur stdDeviation="4.5" result="blur"/>
      <feMerge>
        <feMergeNode in="blur"/>
        <feMergeNode in="SourceGraphic"/>
      </feMerge>
    </filter>
    <style>
      .line { fill: none; stroke: url(#ghostStroke); stroke-width: 18; stroke-linecap: round; stroke-linejoin: round; filter: url(#glow); }
      .thin { fill: none; stroke: url(#ghostStroke); stroke-width: 12; stroke-linecap: round; stroke-linejoin: round; filter: url(#glow); }
      .micro { fill: none; stroke: url(#ghostStroke); stroke-width: 8; stroke-linecap: round; stroke-linejoin: round; filter: url(#glow); }
      .fill { fill: url(#softFill); stroke: url(#ghostStroke); stroke-width: 14; stroke-linecap: round; stroke-linejoin: round; filter: url(#glow); }
      .soft { fill: url(#softFill); opacity: 0.72; }
      .spark { fill: #F4EEFF; filter: url(#sparkGlow); }
    </style>
  </defs>
  
  
  <path class="line" d="M150 380 L358 172"/>
  <path class="thin" d="M330 144 L386 200"/>
  
  <path class="spark" d="M386 106.9 L391.7 118.3 L403.1 124 L391.7 129.7 L386 141.1 L380.3 129.7 L368.9 124 L380.3 118.3 Z"/>

  
  <path class="spark" d="M276 124.1 L279.3 130.7 L285.9 134 L279.3 137.3 L276 143.9 L272.7 137.3 L266.1 134 L272.7 130.7 Z"/>

  
  <path class="spark" d="M402 269.4 L406.2 277.8 L414.6 282 L406.2 286.2 L402 294.6 L397.8 286.2 L389.4 282 L397.8 277.8 Z"/>

  
  <path class="spark" d="M210 204.1 L213.3 210.7 L219.9 214 L213.3 217.3 L210 223.9 L206.7 217.3 L200.1 214 L206.7 210.7 Z"/>


</svg>
