<svg xmlns="http://www.w3.org/2000/svg" width="960" height="520" viewBox="0 0 960 520" fill="none">
  <defs>
    <radialGradient id="bg" cx="50%" cy="44%" r="75%">
      <stop offset="0" stop-color="#fbf7ff"/>
      <stop offset=".52" stop-color="#dac8ff"/>
      <stop offset="1" stop-color="#8e6be8"/>
    </radialGradient>
    <radialGradient id="orb" cx="50%" cy="45%" r="50%">
      <stop offset="0" stop-color="#ffffff" stop-opacity=".95"/>
      <stop offset=".25" stop-color="#eee6ff" stop-opacity=".76"/>
      <stop offset=".58" stop-color="#b69cff" stop-opacity=".28"/>
      <stop offset="1" stop-color="#7c3aed" stop-opacity="0"/>
    </radialGradient>
    <linearGradient id="stroke" x1="320" y1="80" x2="650" y2="430">
      <stop stop-color="#ffffff"/>
      <stop offset=".5" stop-color="#e5d8ff"/>
      <stop offset="1" stop-color="#7c3aed"/>
    </linearGradient>
    <filter id="blur"><feGaussianBlur stdDeviation="15"/></filter>
    <filter id="glow" x="-60%" y="-60%" width="220%" height="220%">
      <feGaussianBlur stdDeviation="6" result="b"/>
      <feMerge><feMergeNode in="b"/><feMergeNode in="SourceGraphic"/></feMerge>
    </filter>
  </defs>
  <rect width="960" height="520" rx="36" fill="url(#bg)"/>
  <circle cx="480" cy="238" r="210" fill="url(#orb)" filter="url(#blur)"/>
  <g opacity=".20">
    <path d="M72 460 C168 350 164 170 92 72" stroke="#fff" stroke-width="4"/>
    <path d="M888 460 C792 350 796 170 868 72" stroke="#fff" stroke-width="4"/>
    <path d="M94 94 H866" stroke="#fff" stroke-width="3"/>
  </g>
  <g filter="url(#glow)" stroke="url(#stroke)" stroke-linecap="round" stroke-linejoin="round">
    <circle cx="480" cy="246" r="132" stroke-width="7" opacity=".82"/>
    <ellipse cx="480" cy="246" rx="196" ry="62" stroke-width="6" opacity=".68"/>
    <ellipse cx="480" cy="246" rx="62" ry="196" stroke-width="6" opacity=".52" transform="rotate(42 480 246)"/>
    <path d="M420 218 C440 168 480 174 480 218 C480 174 520 168 540 218 C572 286 502 334 480 354 C458 334 388 286 420 218 Z" stroke-width="9" fill="rgba(255,255,255,.18)"/>
    <path d="M480 170 V354" stroke-width="4" opacity=".5"/>
  </g>
  <g fill="#fff" opacity=".9" filter="url(#glow)">
    <path d="M650 120 l8 18 18 8-18 8-8 18-8-18-18-8 18-8z"/>
    <path d="M302 152 l5 11 11 5-11 5-5 11-5-11-11-5 11-5z"/>
    <circle cx="620" cy="346" r="5"/>
    <circle cx="354" cy="358" r="4"/>
  </g>
</svg>
