<svg xmlns="http://www.w3.org/2000/svg" width="920" height="520" viewBox="0 0 920 520" fill="none">
  <defs>
    <radialGradient id="bg" cx="50%" cy="44%" r="75%">
      <stop offset="0" stop-color="#fbf7ff"/>
      <stop offset=".52" stop-color="#dac8ff"/>
      <stop offset="1" stop-color="#8e6be8"/>
    </radialGradient>
    <radialGradient id="orb" cx="50%" cy="45%" r="50%">
      <stop offset="0" stop-color="#ffffff" stop-opacity=".96"/>
      <stop offset=".25" stop-color="#efe8ff" stop-opacity=".78"/>
      <stop offset=".58" stop-color="#b69cff" stop-opacity=".28"/>
      <stop offset="1" stop-color="#7c3aed" stop-opacity="0"/>
    </radialGradient>
    <linearGradient id="stroke" x1="300" y1="80" x2="620" y2="430">
      <stop stop-color="#ffffff"/>
      <stop offset=".5" stop-color="#e5d8ff"/>
      <stop offset="1" stop-color="#7c3aed"/>
    </linearGradient>
    <filter id="blur"><feGaussianBlur stdDeviation="15"/></filter>
    <filter id="glow" x="-60%" y="-60%" width="220%" height="220%">
      <feGaussianBlur stdDeviation="6" result="b"/>
      <feMerge><feMergeNode in="b"/><feMergeNode in="SourceGraphic"/></feMerge>
    </filter>
  </defs>
  <rect width="920" height="520" rx="36" fill="url(#bg)"/>
  <circle cx="460" cy="238" r="210" fill="url(#orb)" filter="url(#blur)"/>
  <g opacity=".20">
    <path d="M72 460 C168 350 164 170 92 72" stroke="#fff" stroke-width="4"/>
    <path d="M848 460 C752 350 756 170 828 72" stroke="#fff" stroke-width="4"/>
    <path d="M94 94 H826" stroke="#fff" stroke-width="3"/>
  </g>
  <g filter="url(#glow)" stroke="url(#stroke)" stroke-linecap="round" stroke-linejoin="round">
    <circle cx="460" cy="246" r="132" stroke-width="7" opacity=".82"/>
    <path d="M372 182 L336 238 L394 238 L364 312 L456 210 L400 210 L436 154 Z" stroke-width="10"/>
    <path d="M478 184 C492 150 520 146 528 176 C536 146 564 150 578 184 C602 238 554 282 528 304 C502 282 454 238 478 184 Z" stroke-width="9" fill="rgba(255,255,255,.18)"/>
    <path d="M234 246 H320" stroke-width="8" opacity=".42"/>
    <path d="M596 246 H684" stroke-width="8" opacity=".42"/>
  </g>
  <g fill="#fff" opacity=".9" filter="url(#glow)">
    <path d="M646 122 l8 18 18 8-18 8-8 18-8-18-18-8 18-8z"/>
    <path d="M286 154 l5 11 11 5-11 5-5 11-5-11-11-5 11-5z"/>
    <circle cx="612" cy="346" r="5"/>
    <circle cx="318" cy="358" r="4"/>
  </g>
</svg>
