<svg xmlns="http://www.w3.org/2000/svg" width="512" height="512" viewBox="0 0 512 512" role="img" aria-labelledby="title desc">
<title id="title">Heartbeat</title><desc id="desc">Ghostlight AI Heartbeat settings cinematic lavender SVG asset.</desc>
<defs>
<linearGradient id="line" x1="86" y1="74" x2="426" y2="438" gradientUnits="userSpaceOnUse"><stop offset="0" stop-color="#ffffff"/><stop offset="0.34" stop-color="#f1ecff"/><stop offset="0.68" stop-color="#a78bfa"/><stop offset="1" stop-color="#6d28d9"/></linearGradient>
<linearGradient id="fill" x1="108" y1="96" x2="414" y2="420" gradientUnits="userSpaceOnUse"><stop offset="0" stop-color="#ffffff" stop-opacity=".70"/><stop offset=".54" stop-color="#ddd6fe" stop-opacity=".32"/><stop offset="1" stop-color="#6d28d9" stop-opacity=".16"/></linearGradient>
<radialGradient id="halo" cx="50%" cy="48%" r="60%"><stop offset="0" stop-color="#ddd6fe" stop-opacity=".68"/><stop offset=".55" stop-color="#a78bfa" stop-opacity=".20"/><stop offset="1" stop-color="#6d28d9" stop-opacity="0"/></radialGradient>
<filter id="softGlow" x="-75%" y="-75%" width="250%" height="250%"><feGaussianBlur stdDeviation="5" result="blur"/><feColorMatrix in="blur" type="matrix" values="0.60 0 0 0 0.42 0 0.48 0 0 0.25 0 0 0.90 0 0.90 0 0 0 .74 0"/><feMerge><feMergeNode/><feMergeNode in="SourceGraphic"/></feMerge></filter>
<style>.ring{fill:url(#halo);opacity:.66}.line{fill:none;stroke:url(#line);stroke-width:18;stroke-linecap:round;stroke-linejoin:round;filter:url(#softGlow)}.thin{fill:none;stroke:url(#line);stroke-width:12;stroke-linecap:round;stroke-linejoin:round;filter:url(#softGlow)}.micro{fill:none;stroke:url(#line);stroke-width:8;stroke-linecap:round;stroke-linejoin:round;filter:url(#softGlow)}.fill{fill:url(#fill);stroke:url(#line);stroke-width:14;stroke-linecap:round;stroke-linejoin:round;filter:url(#softGlow)}.spark{fill:#fff7ff;filter:url(#softGlow)}.dot{fill:#22c55e;filter:url(#softGlow)}</style>
</defs><circle class="ring" cx="256" cy="256" r="190"/><circle class="fill" cx="256" cy="256" r="140"/><path class="line" d="M116 270 H176 L208 210 L250 340 L292 226 L322 270 H398"/><path class="thin" d="M206 188 C220 156 250 152 256 182 C262 152 292 156 306 188 C330 244 280 288 256 310 C232 288 182 244 206 188 Z"/><circle class="dot" cx="398" cy="270" r="10"/><path class="spark" d="M368 131.0 L373.25 140.75 L383.0 146 L373.25 151.25 L368 161.0 L362.75 151.25 L353.0 146 L362.75 140.75 Z"/></svg>
