<svg xmlns="http://www.w3.org/2000/svg" width="900" height="520" viewBox="0 0 900 520" fill="none"><defs><radialGradient id="bg" cx="50%" cy="44%" r="75%"><stop offset="0" stop-color="#fbf7ff"/><stop offset=".52" stop-color="#dac8ff"/><stop offset="1" stop-color="#8e6be8"/></radialGradient><radialGradient id="orb" cx="50%" cy="45%" r="50%"><stop offset="0" stop-color="#fff" stop-opacity=".96"/><stop offset=".25" stop-color="#efe8ff" stop-opacity=".78"/><stop offset=".58" stop-color="#b69cff" stop-opacity=".28"/><stop offset="1" stop-color="#7c3aed" stop-opacity="0"/></radialGradient><linearGradient id="stroke" x1="300" y1="80" x2="620" y2="430"><stop stop-color="#fff"/><stop offset=".5" stop-color="#e5d8ff"/><stop offset="1" stop-color="#7c3aed"/></linearGradient><filter id="blur"><feGaussianBlur stdDeviation="15"/></filter><filter id="glow" x="-60%" y="-60%" width="220%" height="220%"><feGaussianBlur stdDeviation="6" result="b"/><feMerge><feMergeNode in="b"/><feMergeNode in="SourceGraphic"/></feMerge></filter></defs><rect width="900" height="520" rx="36" fill="url(#bg)"/><circle cx="450" cy="238" r="210" fill="url(#orb)" filter="url(#blur)"/><g opacity=".20"><path d="M72 460 C168 350 164 170 92 72" stroke="#fff" stroke-width="4"/><path d="M828 460 C732 350 736 170 808 72" stroke="#fff" stroke-width="4"/><path d="M94 94 H806" stroke="#fff" stroke-width="3"/></g><g filter="url(#glow)" stroke="url(#stroke)" stroke-linecap="round" stroke-linejoin="round"><circle cx="450" cy="246" r="132" stroke-width="7" opacity=".82"/><circle cx="450" cy="246" r="96" stroke-width="5" opacity=".48"/><circle cx="450" cy="246" r="176" stroke-width="4" opacity=".22"/><path d="M332 260 H388 L418 206 L456 326 L492 222 L520 260 H570" stroke-width="10"/><path d="M392 196 C410 154 444 152 450 190 C456 152 490 154 508 196 C536 252 480 300 450 326 C420 300 364 252 392 196 Z" stroke-width="9" fill="rgba(255,255,255,.18)"/></g><g fill="#fff" opacity=".9" filter="url(#glow)"><path d="M636 122 l8 18 18 8-18 8-8 18-8-18-18-8 18-8z"/><path d="M286 154 l5 11 11 5-11 5-5 11-5-11-11-5 11-5z"/><circle cx="602" cy="346" r="5"/><circle cx="318" cy="358" r="4"/></g></svg>
